<svg xmlns="http://www.w3.org/2000/svg" style="display:none">

  <!-- Equipment Icons -->
  <symbol id="excavator" viewBox="0 0 48 48" fill="none" stroke="currentColor" stroke-width="2" stroke-linecap="round" stroke-linejoin="round">
    <path d="M6 38h10a2 2 0 0 0 2-2v-4a2 2 0 0 0-2-2H6a2 2 0 0 0-2 2v4a2 2 0 0 0 2 2z"/>
    <circle cx="7" cy="38" r="2.5"/><circle cx="15" cy="38" r="2.5"/>
    <path d="M16 30l6-8 8-12"/><path d="M22 22l10 4"/><path d="M30 10l8 6v6h-6"/>
    <path d="M18 30h6l2 2v4"/><rect x="28" y="8" width="10" height="8" rx="1"/>
  </symbol>

  <symbol id="skid-steer" viewBox="0 0 48 48" fill="none" stroke="currentColor" stroke-width="2" stroke-linecap="round" stroke-linejoin="round">
    <rect x="10" y="18" width="20" height="14" rx="2"/>
    <path d="M10 24H6l-2-6h6"/><path d="M30 24h4l2-6h-6"/>
    <rect x="8" y="32" width="6" height="8" rx="3"/><rect x="26" y="32" width="6" height="8" rx="3"/>
    <path d="M14 18v-6h12v6"/><path d="M20 12V8"/>
    <path d="M4 18l6-8"/><path d="M36 18l-6-8"/>
  </symbol>

  <symbol id="front-loader" viewBox="0 0 48 48" fill="none" stroke="currentColor" stroke-width="2" stroke-linecap="round" stroke-linejoin="round">
    <rect x="14" y="18" width="18" height="12" rx="2"/>
    <circle cx="17" cy="34" r="4"/><circle cx="29" cy="34" r="4"/>
    <path d="M14 24H6v-6l8-4"/><path d="M6 24l-2-2v-6h4"/>
    <path d="M32 22h6v4h-6"/><path d="M22 18v-6h6"/>
  </symbol>

  <symbol id="telescopic-loader" viewBox="0 0 48 48" fill="none" stroke="currentColor" stroke-width="2" stroke-linecap="round" stroke-linejoin="round">
    <rect x="16" y="24" width="16" height="10" rx="2"/>
    <circle cx="19" cy="38" r="4"/><circle cx="29" cy="38" r="4"/>
    <path d="M20 24l-8-16"/><path d="M12 8h-4v6h6"/>
    <path d="M18 24l-4-8"/><path d="M32 28h6"/>
  </symbol>

  <symbol id="scissor-lift" viewBox="0 0 48 48" fill="none" stroke="currentColor" stroke-width="2" stroke-linecap="round" stroke-linejoin="round">
    <rect x="10" y="4" width="28" height="6" rx="1"/>
    <path d="M14 10l10 14"/><path d="M24 10L14 24"/>
    <path d="M24 24l10 14"/><path d="M34 24L24 38"/>
    <rect x="10" y="38" width="28" height="6" rx="1"/>
    <rect x="14" y="4" width="2" height="3"/><rect x="32" y="4" width="2" height="3"/>
  </symbol>

  <symbol id="dump-truck" viewBox="0 0 48 48" fill="none" stroke="currentColor" stroke-width="2" stroke-linecap="round" stroke-linejoin="round">
    <path d="M4 32h28V18L24 12H4z"/>
    <rect x="32" y="22" width="12" height="10" rx="1"/>
    <circle cx="10" cy="36" r="4"/><circle cx="22" cy="36" r="4"/><circle cx="38" cy="36" r="4"/>
    <path d="M4 24h28"/><path d="M12 12v10"/>
  </symbol>

  <symbol id="boom-lift" viewBox="0 0 48 48" fill="none" stroke="currentColor" stroke-width="2" stroke-linecap="round" stroke-linejoin="round">
    <rect x="12" y="34" width="24" height="8" rx="2"/>
    <circle cx="16" cy="42" r="3"/><circle cx="32" cy="42" r="3"/>
    <path d="M20 34v-6l-8-12"/><path d="M12 16l-4-8"/><path d="M8 8h-4v4h6"/>
    <path d="M20 28h4"/>
  </symbol>

  <symbol id="telescopic-lift" viewBox="0 0 48 48" fill="none" stroke="currentColor" stroke-width="2" stroke-linecap="round" stroke-linejoin="round">
    <rect x="14" y="34" width="20" height="8" rx="2"/>
    <circle cx="18" cy="42" r="3"/><circle cx="30" cy="42" r="3"/>
    <path d="M24 34V20"/><path d="M24 20V8"/><path d="M20 8h8"/>
    <rect x="18" y="4" width="12" height="4" rx="1"/>
  </symbol>

  <symbol id="crane" viewBox="0 0 48 48" fill="none" stroke="currentColor" stroke-width="2" stroke-linecap="round" stroke-linejoin="round">
    <rect x="16" y="32" width="16" height="10" rx="2"/>
    <circle cx="19" cy="42" r="3"/><circle cx="29" cy="42" r="3"/>
    <path d="M24 32V14"/><path d="M24 14L10 8"/><path d="M24 14l14-6"/>
    <path d="M10 8v6"/><path d="M38 8v6"/><path d="M20 32v-8h8v8"/>
  </symbol>

  <!-- Service Icons -->
  <symbol id="wrench" viewBox="0 0 24 24" fill="none" stroke="currentColor" stroke-width="2" stroke-linecap="round" stroke-linejoin="round">
    <path d="M14.7 6.3a1 1 0 0 0 0 1.4l1.6 1.6a1 1 0 0 0 1.4 0l3.77-3.77a6 6 0 0 1-7.94 7.94l-6.91 6.91a2.12 2.12 0 0 1-3-3l6.91-6.91a6 6 0 0 1 7.94-7.94l-3.76 3.76z"/>
  </symbol>

  <symbol id="box" viewBox="0 0 24 24" fill="none" stroke="currentColor" stroke-width="2" stroke-linecap="round" stroke-linejoin="round">
    <path d="M21 16V8a2 2 0 0 0-1-1.73l-7-4a2 2 0 0 0-2 0l-7 4A2 2 0 0 0 3 8v8a2 2 0 0 0 1 1.73l7 4a2 2 0 0 0 2 0l7-4A2 2 0 0 0 21 16z"/>
    <polyline points="3.27 6.96 12 12.01 20.73 6.96"/><line x1="12" y1="22.08" x2="12" y2="12"/>
  </symbol>

  <symbol id="wallet" viewBox="0 0 24 24" fill="none" stroke="currentColor" stroke-width="2" stroke-linecap="round" stroke-linejoin="round">
    <rect x="2" y="6" width="20" height="14" rx="2"/><path d="M2 10h20"/>
    <circle cx="16" cy="14" r="1.5"/>
    <path d="M6 6V4a2 2 0 0 1 2-2h8a2 2 0 0 1 2 2v2"/>
  </symbol>

  <!-- Advantage Icons -->
  <symbol id="piggy-bank" viewBox="0 0 24 24" fill="none" stroke="currentColor" stroke-width="2" stroke-linecap="round" stroke-linejoin="round">
    <path d="M19 5c-1.5 0-2.8 1.4-3 2-3.5-1.5-11-.3-11 5 0 1.8 0 3 2 4.5V20h4v-2h3v2h4v-4c1-.5 1.7-1 2-2h2v-4h-2c0-1-.5-1.5-1-2"/>
    <path d="M2 9v1c0 1.1.9 2 2 2h1"/><circle cx="13" cy="9" r="1"/>
  </symbol>

  <symbol id="swiss-army-knife" viewBox="0 0 24 24" fill="none" stroke="currentColor" stroke-width="2" stroke-linecap="round" stroke-linejoin="round">
    <path d="M4 20h16a2 2 0 0 0 2-2V8a2 2 0 0 0-2-2H4a2 2 0 0 0-2 2v10a2 2 0 0 0 2 2z"/>
    <circle cx="6" cy="13" r="2"/>
    <path d="M8 13h6"/><path d="M14 10v6"/><path d="M17 10l3 3-3 3"/>
  </symbol>

  <symbol id="seat" viewBox="0 0 24 24" fill="none" stroke="currentColor" stroke-width="2" stroke-linecap="round" stroke-linejoin="round">
    <path d="M7 18v2h2l1-2"/><path d="M15 18v2h2l-1-2"/>
    <path d="M6 12V8a2 2 0 0 1 2-2h8a2 2 0 0 1 2 2v4"/>
    <path d="M5 18h14a2 2 0 0 0 2-2v-2a2 2 0 0 0-2-2H5a2 2 0 0 0-2 2v2a2 2 0 0 0 2 2z"/>
  </symbol>

  <!-- UI Icons -->
  <symbol id="phone" viewBox="0 0 24 24" fill="none" stroke="currentColor" stroke-width="2" stroke-linecap="round" stroke-linejoin="round">
    <path d="M22 16.92v3a2 2 0 0 1-2.18 2 19.79 19.79 0 0 1-8.63-3.07 19.5 19.5 0 0 1-6-6 19.79 19.79 0 0 1-3.07-8.67A2 2 0 0 1 4.11 2h3a2 2 0 0 1 2 1.72c.127.96.361 1.903.7 2.81a2 2 0 0 1-.45 2.11L8.09 9.91a16 16 0 0 0 6 6l1.27-1.27a2 2 0 0 1 2.11-.45c.907.339 1.85.573 2.81.7A2 2 0 0 1 22 16.92z"/>
  </symbol>

  <symbol id="menu" viewBox="0 0 24 24" fill="none" stroke="currentColor" stroke-width="2" stroke-linecap="round" stroke-linejoin="round">
    <line x1="3" y1="6" x2="21" y2="6"/><line x1="3" y1="12" x2="21" y2="12"/><line x1="3" y1="18" x2="21" y2="18"/>
  </symbol>

  <symbol id="close" viewBox="0 0 24 24" fill="none" stroke="currentColor" stroke-width="2" stroke-linecap="round" stroke-linejoin="round">
    <line x1="18" y1="6" x2="6" y2="18"/><line x1="6" y1="6" x2="18" y2="18"/>
  </symbol>

  <symbol id="chevron-down" viewBox="0 0 24 24" fill="none" stroke="currentColor" stroke-width="2" stroke-linecap="round" stroke-linejoin="round">
    <polyline points="6 9 12 15 18 9"/>
  </symbol>

  <symbol id="arrow-right" viewBox="0 0 24 24" fill="none" stroke="currentColor" stroke-width="2" stroke-linecap="round" stroke-linejoin="round">
    <line x1="5" y1="12" x2="19" y2="12"/><polyline points="12 5 19 12 12 19"/>
  </symbol>

  <symbol id="check" viewBox="0 0 24 24" fill="none" stroke="currentColor" stroke-width="2" stroke-linecap="round" stroke-linejoin="round">
    <polyline points="20 6 9 17 4 12"/>
  </symbol>

</svg>
